<?xml version="1.0" encoding="UTF-8"?>
<!DOCTYPE svg PUBLIC "-//W3C//DTD SVG 1.1//EN" "http://www.w3.org/Graphics/SVG/1.1/DTD/svg11.dtd">
<!-- Creator: CorelDRAW -->
<svg xmlns="http://www.w3.org/2000/svg" xml:space="preserve" width="67.7332mm" height="29.6332mm" style="shape-rendering:geometricPrecision; text-rendering:geometricPrecision; image-rendering:optimizeQuality; fill-rule:evenodd; clip-rule:evenodd"
viewBox="0 0 67.7332 29.6332"
 xmlns:xlink="http://www.w3.org/1999/xlink">
 <defs>
  <style type="text/css">
   <![CDATA[
    .fil2 {fill:#186383}
    .fil0 {fill:#5DB5C1}
    .fil1 {fill:#FEFEFE}
    .fil3 {fill:black;fill-rule:nonzero}
   ]]>
  </style>
 </defs>
 <g id="Layer_x0020_1">
  <metadata id="CorelCorpID_0Corel-Layer"/>
  <g id="_203507728">
   <g>
    <g id="_226054992">
     <path id="_226055208" class="fil0" d="M62.6369 24.4601l-57.5406 -3.057c-1.2812,-0.0682 -2.3318,-1.1504 -2.3318,-2.6549l0 -12.3894c0,-1.5045 1.0507,-2.5868 2.3318,-2.6549l57.5406 -3.0571c1.2812,-0.0681 2.3318,1.2308 2.3318,2.7352l0 18.3429c0,1.5045 -1.0506,2.8034 -2.3318,2.7352z"/>
     <path id="_226054968" class="fil0" d="M5.0963 24.4601l57.5406 -3.057c1.2812,-0.0682 2.3318,-1.1504 2.3318,-2.6549l0 -12.3894c0,-1.5045 -1.0507,-2.5868 -2.3318,-2.6549l-57.5406 -3.0571c-1.2812,-0.0681 -2.3318,1.2308 -2.3318,2.7352l0 18.3429c0,1.5045 1.0506,2.8034 2.3318,2.7352z"/>
    </g>
    <g id="_226051968">
     <polygon id="_226054824" class="fil1" points="55.5507,7.6803 57.9306,7.6803 57.9306,11.3635 61.6139,11.3635 61.6139,13.7435 57.9306,13.7435 57.9306,17.4267 55.5507,17.4267 55.5507,13.7435 51.8675,13.7435 51.8675,11.3635 55.5507,11.3635 "/>
     <g>
      <path id="_226054656" class="fil2" d="M6.19 10.6417l-0.0707 -7.0759c7.1129,-0.9063 11.1302,1.6705 12.561,8.4059l-10.9473 0.0521c-0.229,-0.904 -0.6144,-1.2697 -1.543,-1.3821z"/>
      <path id="_226054416" class="fil2" d="M6.1771 13.9174l-0.0141 7.6949c6.8603,0.7211 12.2135,-2.2915 12.4735,-9.176l-10.8848 0.0733c-0.2337,0.9119 -0.6505,1.284 -1.5746,1.4078z"/>
     </g>
     <g>
      <path id="_226054272" class="fil2" d="M28.2964 3.7085l-0.1281 17.7456c-10.5359,-0.325 -12.4389,-16.9693 0.1281,-17.7456z"/>
      <path id="_226054032" class="fil2" d="M28.7425 3.6464l-0.0862 17.8141c10.4076,-0.1212 12.7047,-16.5378 0.0862,-17.8141z"/>
     </g>
     <g>
      <path id="_226053888" class="fil2" d="M49.6676 3.6905l-11.5955 -0.0973 -0.0177 5.5525 10.0624 -0.0007c0.2281,-1.1642 0.5089,-1.4969 1.5705,-1.3577l-0.0197 -4.0968z"/>
      <path id="_226053000" class="fil2" d="M38.0595 16.1469l0.0009 5.3591 11.6176 0.0077 0.0042 -3.796c-0.9534,-0.1309 -1.4072,-0.2197 -1.576,-1.5644l-10.0467 -0.0064z"/>
      <path id="_226053120" class="fil2" d="M38.0626 9.5831l0.0052 6.0973 10.071 0.0285c0.1002,-0.7705 0.8354,-1.4556 1.5165,-1.4269l0.0238 -3.1117c-1.0818,0.1096 -1.456,-0.6533 -1.5344,-1.5588l-10.0821 -0.0284z"/>
     </g>
    </g>
   </g>
   <path id="_208439248" class="fil3" d="M8.8681 28.3329c-0.0191,-0.0021 -0.0489,-0.0053 -0.0903,-0.0106 -0.0413,-0.0053 -0.0732,-0.0085 -0.0954,-0.0085 -0.0648,0 -0.1264,0.0064 -0.1847,0.0191 -0.1592,-0.4395 -0.3344,-0.9022 -0.5255,-1.3884 -0.19,-0.486 -0.3853,-0.9679 -0.5826,-1.4457 0.1719,0.0171 0.2929,0.0255 0.3639,0.0255 0.0712,0 0.1922,-0.0084 0.362,-0.0255 0.0638,0.2134 0.1338,0.4257 0.2092,0.6358 0.0753,0.2102 0.1645,0.4512 0.2674,0.724 0.104,0.2717 0.1922,0.5063 0.2632,0.7027 0.3217,-0.776 0.5796,-1.4638 0.776,-2.0625 0.0116,0.0033 0.0212,0.0053 0.0276,0.0065 0.0063,0.0021 0.0116,0.0031 0.0169,0.0053 0.1486,0 0.259,-0.0043 0.3312,-0.0118 -0.1093,0.258 -0.2409,0.5722 -0.3959,0.9426 -0.1549,0.3694 -0.2941,0.7112 -0.4182,1.0243 -0.1232,0.3142 -0.2324,0.603 -0.3248,0.8672zm4.0187 -0.3121c-0.3047,0.2591 -0.6858,0.3885 -1.1411,0.3885 -0.4756,0 -0.8513,-0.138 -1.1273,-0.414 -0.2717,-0.2621 -0.4075,-0.6166 -0.4075,-1.0635 0,-0.4574 0.1634,-0.8268 0.4914,-1.1091 0.3089,-0.2548 0.6889,-0.3822 1.1389,-0.3822 0.3811,0 0.7005,0.0934 0.9616,0.2813 0.2165,0.156 0.3651,0.3343 0.4458,0.5349 0.085,0.2018 0.1274,0.4204 0.1274,0.657 0,0.2112 -0.0424,0.414 -0.1263,0.6072 -0.0849,0.1943 -0.2059,0.3609 -0.3629,0.4999zm-0.3769 -0.3322c0.12,-0.2229 0.1794,-0.5073 0.1794,-0.8534 0,-0.1879 -0.0308,-0.3714 -0.0924,-0.5487 -0.0615,-0.1773 -0.1581,-0.3217 -0.2908,-0.4342 -0.1316,-0.1125 -0.2951,-0.1688 -0.4914,-0.1688 -0.1816,0 -0.3365,0.0467 -0.4649,0.1402 -0.1285,0.0913 -0.2261,0.2059 -0.2919,0.3429 -0.1062,0.2175 -0.1592,0.5126 -0.1592,0.8862 0,0.1911 0.0297,0.3705 0.0901,0.5381 0.0605,0.1678 0.1561,0.3047 0.2866,0.4109 0.1306,0.105 0.2941,0.1581 0.4894,0.1581 0.3152,0 0.5636,-0.1571 0.7451,-0.4713zm3.5675 0.1667l-0.0903 0.3555c-0.2228,0.1158 -0.4967,0.1731 -0.8215,0.1731 -0.1507,0 -0.3311,-0.0192 -0.5414,-0.0573 -0.1273,-0.0287 -0.2781,-0.0967 -0.4521,-0.2049 -0.1126,-0.0775 -0.2112,-0.1751 -0.2983,-0.2929 -0.1741,-0.2326 -0.2611,-0.5064 -0.2611,-0.8205 0,-0.2526 0.0361,-0.4735 0.1083,-0.6645 0.0721,-0.19 0.1952,-0.3619 0.3693,-0.5137 0.2909,-0.2495 0.6815,-0.3747 1.1709,-0.3747 0.312,0 0.5922,0.0658 0.8406,0.1973 -0.0117,0.0467 -0.0276,0.1105 -0.0446,0.1922 -0.0181,0.0818 -0.034,0.157 -0.0499,0.2282l-0.0573 0c-0.0775,-0.1104 -0.1784,-0.1984 -0.3025,-0.2643 -0.1252,-0.0668 -0.2537,-0.0998 -0.3875,-0.0998 -0.2165,0 -0.3969,0.0595 -0.5433,0.1784 -0.1455,0.12 -0.2527,0.2739 -0.3206,0.4627 -0.069,0.189 -0.103,0.3896 -0.103,0.6009 0,0.3406 0.0807,0.6209 0.243,0.8406 0.0881,0.1114 0.1986,0.1974 0.3323,0.2579 0.1337,0.0605 0.2717,0.0913 0.4129,0.0913 0.1252,0 0.2569,-0.0287 0.3949,-0.086 0.139,-0.0573 0.2558,-0.1306 0.3492,-0.2187l0.052 0.0192zm0.4968 -2.3565c0.0742,0.0022 0.1794,0.0065 0.3152,0.0139 0.1359,0.0075 0.2494,0.0116 0.3386,0.0116 0.1401,0 0.3067,-0.0031 0.4978,-0.0094 0.1921,-0.0055 0.3387,-0.0086 0.4405,-0.0108 -0.0042,0.0691 -0.0064,0.171 -0.0064,0.3068 0.0043,0.0128 0.0064,0.0298 0.0064,0.051 -0.4043,-0.0339 -0.7196,-0.051 -0.9447,-0.051 -0.0042,0.0977 -0.0063,0.242 -0.0063,0.4342 0,0.0509 -0.0011,0.1263 -0.0032,0.2281 -0.0021,0.1019 -0.0032,0.1784 -0.0032,0.2283l0.9436 -0.0308c-0.017,0.085 -0.0254,0.1486 -0.0254,0.191 0,0.0372 0.0084,0.0903 0.0254,0.1593 -0.2749,-0.0213 -0.5222,-0.0319 -0.7398,-0.0319 -0.0202,0 -0.0541,-0.001 -0.0998,-0.0032 -0.0456,-0.0021 -0.0807,-0.0021 -0.104,-0.0021l0 0.5286 0 0.5202c0.2547,0 0.5743,-0.0181 0.9574,-0.0552 -0.0042,0.0668 -0.0064,0.1687 -0.0064,0.3045 0.0043,0.0128 0.0064,0.0298 0.0064,0.051 -0.0828,-0.0021 -0.207,-0.0063 -0.3737,-0.0138 -0.1655,-0.0074 -0.2897,-0.0106 -0.3725,-0.0106 -0.0552,0 -0.138,0.0021 -0.2473,0.0053 -0.1104,0.0042 -0.1911,0.0064 -0.2431,0.0064 -0.0764,0 -0.1995,0.0042 -0.3694,0.0127 0.0022,-0.0255 0.0053,-0.0658 0.0075,-0.1199 0.0021,-0.0531 0.0042,-0.0913 0.0064,-0.1168 0.0021,-0.0785 0.0053,-0.2048 0.0106,-0.38 0.0053,-0.1751 0.0074,-0.3067 0.0074,-0.3948 0,-0.0679 0.0011,-0.172 0.0032,-0.3111 0.0021,-0.14 0.0032,-0.2452 0.0032,-0.3141l0 -0.4841c0,-0.071 -0.0032,-0.1804 -0.0106,-0.3279 -0.0075,-0.1465 -0.0117,-0.2558 -0.0138,-0.328l0 -0.0574zm1.5486 -0.2674l-0.3938 0 -0.2993 -0.397 -0.2898 0.397 -0.3916 0 0.4839 -0.6497 0.4118 0 0.4788 0.6497zm1.6675 3.0707l0.3047 -0.708c0.3535,-0.8088 0.6399,-1.5135 0.8597,-2.1143 0.0149,0.001 0.0318,0.0031 0.0509,0.0064 0.0192,0.0032 0.0383,0.0063 0.0585,0.0085 0.02,0.0031 0.0371,0.0041 0.0508,0.0041 0.0224,0 0.0479,-0.002 0.0744,-0.0073 0.0275,-0.0043 0.053,-0.0086 0.0775,-0.0117l0.0328 0.07c0.3408,0.8991 0.7016,1.7991 1.0828,2.7003l0.0243 0.0435 0 0.0393c-0.0402,-0.0021 -0.0997,-0.0053 -0.1772,-0.0106 -0.0775,-0.0053 -0.137,-0.0085 -0.1783,-0.0085 -0.1158,0 -0.2304,0.0064 -0.3439,0.0191 -0.1189,-0.3789 -0.2155,-0.6623 -0.2877,-0.847 -0.0509,0 -0.1274,-0.0022 -0.2282,-0.0063 -0.1018,-0.0043 -0.1783,-0.0065 -0.2304,-0.0065 -0.1071,0 -0.2738,0.0043 -0.5019,0.0128l-0.0192 0.0573c-0.0467,0.1295 -0.0945,0.2632 -0.1433,0.4023 -0.0499,0.1379 -0.0881,0.2675 -0.1178,0.3874 -0.0626,-0.0127 -0.1284,-0.0191 -0.1975,-0.0191 -0.0626,0 -0.1262,0.0064 -0.191,0.0191l0 -0.0308zm0.7759 -1.0657l0.7589 0c-0.0902,-0.2526 -0.2143,-0.5753 -0.3704,-0.9669 -0.1476,0.3376 -0.2717,0.6475 -0.3747,0.9298l-0.0138 0.0371zm1.9934 1.5614c0.1985,-0.0403 0.3047,-0.1677 0.3196,-0.3821 0.0159,-0.2037 0.0243,-0.4341 0.0243,-0.6942 0,-0.0838 0.001,-0.208 0.0032,-0.3726 0.0021,-0.1645 0.0031,-0.2866 0.0031,-0.3651 0,-0.0615 0.0012,-0.1539 0.0033,-0.278 0.0021,-0.1254 0.0032,-0.2187 0.0032,-0.2834 0,-0.0468 -0.0011,-0.1147 -0.0032,-0.2049 -0.0021,-0.0902 -0.0033,-0.1582 -0.0033,-0.2028 -0.0041,-0.0573 -0.0084,-0.1443 -0.0126,-0.259 -0.0043,-0.1156 -0.0086,-0.2006 -0.0127,-0.2569 0.1719,0.0171 0.2866,0.0255 0.3439,0.0255 0.0742,0 0.1888,-0.0084 0.3427,-0.0255 -0.0159,0.2389 -0.0265,0.4173 -0.0308,0.5351 -0.0041,0.1103 -0.0063,0.2791 -0.0063,0.5031 -0.0053,0.035 -0.0074,0.0848 -0.0074,0.1528 0,0.1073 0.0021,0.2579 0.0074,0.4522 0.0043,0.1953 0.0063,0.363 0.0063,0.5041l0 0.2526c0,0.2739 -0.0424,0.4809 -0.1273,0.6189 -0.1624,0.2728 -0.4256,0.4299 -0.7897,0.4713l-0.0637 -0.1911zm4.1715 -2.6939c0,0.0435 -0.001,0.1114 -0.0032,0.2038 -0.0021,0.0913 -0.0032,0.1602 -0.0032,0.2048 0,0.051 -0.0021,0.1264 -0.0064,0.2283 -0.0043,0.1018 -0.0063,0.1782 -0.0063,0.2282 -0.0086,0.3194 -0.0361,0.5657 -0.0828,0.7397 -0.0467,0.1731 -0.1656,0.326 -0.3577,0.4586 -0.2017,0.1444 -0.4628,0.2166 -0.7834,0.2166 -0.1794,0 -0.3492,-0.0213 -0.5105,-0.0648 -0.1614,-0.0425 -0.3025,-0.1157 -0.4246,-0.2186 -0.1221,-0.103 -0.2069,-0.241 -0.2558,-0.4119 -0.0159,-0.0467 -0.0286,-0.1199 -0.0371,-0.2218 -0.0086,-0.0594 -0.0128,-0.1539 -0.0128,-0.2855 0,-0.085 -0.0011,-0.1763 -0.0031,-0.276 -0.0033,-0.0976 -0.0043,-0.1762 -0.0043,-0.2346l0 -0.5222c0,-0.051 -0.0011,-0.1295 -0.0032,-0.2357 -0.0021,-0.1072 -0.0032,-0.1857 -0.0032,-0.2356 0,-0.018 -0.0011,-0.0477 -0.0032,-0.0871 -0.0021,-0.0393 -0.0032,-0.0699 -0.0032,-0.0913 0.1635,0.0171 0.277,0.0255 0.344,0.0255 0.0679,0 0.1782,-0.0084 0.3311,-0.0255 0,0.0214 -0.0031,0.0542 -0.0074,0.0999 -0.0053,0.0456 -0.0095,0.0795 -0.0117,0.104 -0.0202,0.3609 -0.0308,0.6835 -0.0308,0.968 0,0.3768 0.0085,0.6379 0.0244,0.7834 0.0255,0.1221 0.052,0.2154 0.0785,0.2801 0.0277,0.0648 0.0765,0.1285 0.1445,0.1912 0.1252,0.1188 0.2834,0.1782 0.4734,0.1782 0.191,0 0.3428,-0.0392 0.4574,-0.1167 0.1147,-0.0776 0.2091,-0.2048 0.2813,-0.3811 0.0467,-0.1231 0.0701,-0.4097 0.0701,-0.8587 0,-0.5551 -0.0106,-0.9712 -0.033,-1.2483 0.0999,0.0171 0.1688,0.0255 0.2092,0.0255 0.0413,0 0.1125,-0.0084 0.2112,-0.0255 -0.0043,0.0298 -0.0085,0.0712 -0.0127,0.1232 -0.0033,0.0531 -0.0075,0.1082 -0.0106,0.1667 -0.0033,0.0583 -0.0053,0.1082 -0.0065,0.1496 -0.0021,0.0414 -0.0053,0.0966 -0.0084,0.1656zm1.2058 -0.5933c0.0456,0 0.1167,-0.0022 0.2122,-0.0065 0.0966,-0.0031 0.1698,-0.0053 0.2197,-0.0053 0.2006,0 0.3514,0.0043 0.4522,0.0128 0.2421,0.0202 0.4331,0.0584 0.5742,0.1146 0.1604,0.0638 0.2898,0.155 0.3875,0.2739 0.2261,0.2494 0.3386,0.5647 0.3386,0.9437 0,0.2345 -0.0393,0.4425 -0.1178,0.6251 -0.0775,0.1825 -0.2049,0.3513 -0.38,0.5085 -0.1486,0.1337 -0.3068,0.226 -0.4734,0.278 -0.1667,0.052 -0.363,0.0775 -0.5901,0.0775 -0.2972,0 -0.5202,-0.0021 -0.6688,-0.0063 -0.0212,-0.0043 -0.0563,-0.0064 -0.1019,-0.0064 -0.0807,0 -0.2006,0.0042 -0.363,0.0127 0.0254,-0.4829 0.0372,-0.9648 0.0372,-1.4457l0 -0.4203c0,-0.0669 -0.0022,-0.1666 -0.0075,-0.2993 -0.0053,-0.1327 -0.0084,-0.2346 -0.0106,-0.3047 -0.0031,-0.0615 -0.0063,-0.122 -0.0096,-0.1825 -0.0031,-0.0605 -0.0063,-0.121 -0.0095,-0.1816 0.2282,0.0075 0.398,0.0118 0.5106,0.0118zm0.4383 2.5793c0.2038,0 0.3705,-0.0255 0.5,-0.0765 0.1294,-0.0509 0.2452,-0.1496 0.3481,-0.2982 0.1519,-0.225 0.2282,-0.518 0.2282,-0.88 0,-0.1475 -0.0223,-0.2972 -0.0679,-0.4479 -0.0446,-0.1497 -0.1115,-0.2739 -0.1996,-0.3726 -0.0987,-0.1114 -0.2101,-0.1857 -0.3343,-0.2228 -0.1242,-0.0383 -0.276,-0.0574 -0.4554,-0.0574 -0.0318,0 -0.0795,0.0032 -0.1433,0.0085 -0.0647,0.0043 -0.1146,0.0085 -0.1496,0.0106 -0.017,0.4628 -0.0245,1.1528 -0.0245,2.0688l0 0.261c0.0669,0.0043 0.1667,0.0065 0.2983,0.0065zm2.0019 0.2122l0.3046 -0.708c0.3535,-0.8088 0.64,-1.5135 0.8598,-2.1143 0.0149,0.001 0.0318,0.0031 0.0509,0.0064 0.0192,0.0032 0.0382,0.0063 0.0584,0.0085 0.0201,0.0031 0.0372,0.0041 0.0509,0.0041 0.0224,0 0.0479,-0.002 0.0744,-0.0073 0.0275,-0.0043 0.053,-0.0086 0.0775,-0.0117l0.0328 0.07c0.3408,0.8991 0.7016,1.7991 1.0827,2.7003l0.0244 0.0435 0 0.0393c-0.0403,-0.0021 -0.0997,-0.0053 -0.1772,-0.0106 -0.0776,-0.0053 -0.137,-0.0085 -0.1783,-0.0085 -0.1158,0 -0.2304,0.0064 -0.3439,0.0191 -0.1189,-0.3789 -0.2155,-0.6623 -0.2877,-0.847 -0.0509,0 -0.1274,-0.0022 -0.2282,-0.0063 -0.1019,-0.0043 -0.1784,-0.0065 -0.2304,-0.0065 -0.1072,0 -0.2738,0.0043 -0.502,0.0128l-0.0191 0.0573c-0.0468,0.1295 -0.0945,0.2632 -0.1433,0.4023 -0.0499,0.1379 -0.0882,0.2675 -0.1178,0.3874 -0.0627,-0.0127 -0.1284,-0.0191 -0.1975,-0.0191 -0.0626,0 -0.1262,0.0064 -0.191,0.0191l0 -0.0308zm0.7759 -1.0657l0.7589 0c-0.0902,-0.2526 -0.2144,-0.5753 -0.3704,-0.9669 -0.1476,0.3376 -0.2717,0.6475 -0.3747,0.9298l-0.0138 0.0371zm2.6154 1.0902c-0.0573,-0.0086 -0.1125,-0.0128 -0.1635,-0.0128 -0.0636,0 -0.1273,0.0064 -0.191,0.0191 0.0287,-0.2962 0.0488,-0.605 0.0605,-0.9245 0.0106,-0.3206 0.0159,-0.6687 0.0159,-1.0434 0,-0.0743 -0.001,-0.1847 -0.0031,-0.3333 -0.0022,-0.1475 -0.0032,-0.26 -0.0032,-0.3354 0,-0.0849 -0.0022,-0.1508 -0.0064,-0.1975 0.0902,0.0171 0.1517,0.0255 0.1847,0.0255 0.0371,0 0.1008,-0.0084 0.19,-0.0255 0.1645,0.1806 0.3184,0.3472 0.4607,0.5011 0.1433,0.1528 0.3035,0.3237 0.4786,0.5126 0.1762,0.189 0.327,0.3503 0.4511,0.4862 0.1242,0.1348 0.2601,0.2866 0.4076,0.4554l0 -0.9108 0 -0.4649c0,-0.0679 -0.0042,-0.155 -0.0117,-0.259 -0.0073,-0.1051 -0.0126,-0.1836 -0.0148,-0.2366l-0.0064 -0.084c0.0903,0.0171 0.1519,0.0255 0.1847,0.0255 0.0276,0 0.0605,-0.0031 0.0987,-0.0084 0.0383,-0.0053 0.0691,-0.0096 0.0923,-0.0118 -0.0084,0.1041 -0.0126,0.1806 -0.0126,0.2304 -0.016,0.2006 -0.0277,0.3747 -0.033,0.5222 -0.0021,0.0871 -0.0031,0.1582 -0.0053,0.2112 -0.0031,0.0552 -0.0064,0.1211 -0.0096,0.1965 -0.0031,0.0764 -0.0053,0.1474 -0.0063,0.2133 -0.0021,0.0647 -0.0031,0.1188 -0.0031,0.1634l0 0.4193 0 0.8725c-0.0086,-0.0043 -0.0234,-0.0063 -0.0447,-0.0063 -0.0265,-0.0043 -0.0647,-0.0064 -0.1147,-0.0064 -0.0763,0 -0.1347,0.0042 -0.1772,0.0127 -0.5052,-0.5934 -0.9584,-1.1006 -1.3586,-1.5221l-0.4468 -0.4713c-0.0086,0.2548 -0.0128,0.4395 -0.0128,0.553l0 0.3832c0,0.4713 0.0095,0.8237 0.0266,1.0572l-0.0266 -0.0063zm3.3797 -2.816c0.0455,0 0.1166,-0.0022 0.2122,-0.0065 0.0966,-0.0031 0.1698,-0.0053 0.2197,-0.0053 0.2006,0 0.3513,0.0043 0.4522,0.0128 0.242,0.0202 0.433,0.0584 0.5742,0.1146 0.1603,0.0638 0.2897,0.155 0.3874,0.2739 0.2262,0.2494 0.3387,0.5647 0.3387,0.9437 0,0.2345 -0.0393,0.4425 -0.1178,0.6251 -0.0776,0.1825 -0.2049,0.3513 -0.3801,0.5085 -0.1486,0.1337 -0.3067,0.226 -0.4734,0.278 -0.1666,0.052 -0.363,0.0775 -0.5901,0.0775 -0.2972,0 -0.5201,-0.0021 -0.6687,-0.0063 -0.0213,-0.0043 -0.0563,-0.0064 -0.1019,-0.0064 -0.0807,0 -0.2006,0.0042 -0.363,0.0127 0.0254,-0.4829 0.0371,-0.9648 0.0371,-1.4457l0 -0.4203c0,-0.0669 -0.0021,-0.1666 -0.0074,-0.2993 -0.0053,-0.1327 -0.0085,-0.2346 -0.0106,-0.3047 -0.0032,-0.0615 -0.0064,-0.122 -0.0096,-0.1825 -0.0032,-0.0605 -0.0063,-0.121 -0.0095,-0.1816 0.2281,0.0075 0.3979,0.0118 0.5106,0.0118zm0.4383 2.5793c0.2038,0 0.3704,-0.0255 0.5,-0.0765 0.1294,-0.0509 0.2451,-0.1496 0.348,-0.2982 0.1519,-0.225 0.2283,-0.518 0.2283,-0.88 0,-0.1475 -0.0224,-0.2972 -0.0679,-0.4479 -0.0446,-0.1497 -0.1115,-0.2739 -0.1996,-0.3726 -0.0988,-0.1114 -0.2101,-0.1857 -0.3343,-0.2228 -0.1243,-0.0383 -0.276,-0.0574 -0.4554,-0.0574 -0.0319,0 -0.0796,0.0032 -0.1433,0.0085 -0.0648,0.0043 -0.1147,0.0085 -0.1496,0.0106 -0.0171,0.4628 -0.0245,1.1528 -0.0245,2.0688l0 0.261c0.0669,0.0043 0.1666,0.0065 0.2983,0.0065zm4.7786 -0.0691c-0.3046,0.2591 -0.6858,0.3885 -1.1411,0.3885 -0.4755,0 -0.8513,-0.138 -1.1272,-0.414 -0.2717,-0.2621 -0.4076,-0.6166 -0.4076,-1.0635 0,-0.4574 0.1634,-0.8268 0.4914,-1.1091 0.3089,-0.2548 0.6889,-0.3822 1.1389,-0.3822 0.3811,0 0.7006,0.0934 0.9617,0.2813 0.2165,0.156 0.3651,0.3343 0.4457,0.5349 0.085,0.2018 0.1274,0.4204 0.1274,0.657 0,0.2112 -0.0424,0.414 -0.1262,0.6072 -0.085,0.1943 -0.2059,0.3609 -0.363,0.4999zm-0.3769 -0.3322c0.12,-0.2229 0.1794,-0.5073 0.1794,-0.8534 0,-0.1879 -0.0308,-0.3714 -0.0924,-0.5487 -0.0615,-0.1773 -0.158,-0.3217 -0.2907,-0.4342 -0.1317,-0.1125 -0.2952,-0.1688 -0.4915,-0.1688 -0.1816,0 -0.3365,0.0467 -0.4649,0.1402 -0.1285,0.0913 -0.2261,0.2059 -0.2919,0.3429 -0.1061,0.2175 -0.1592,0.5126 -0.1592,0.8862 0,0.1911 0.0297,0.3705 0.0902,0.5381 0.0605,0.1678 0.156,0.3047 0.2866,0.4109 0.1305,0.105 0.294,0.1581 0.4893,0.1581 0.3153,0 0.5636,-0.1571 0.7451,-0.4713zm2.9625 -2.1898c0.0138,0.0022 0.0393,0.0065 0.0754,0.0139 0.0371,0.0075 0.0658,0.0116 0.0891,0.0116 0.033,0 0.0903,-0.0084 0.173,-0.0255 0.2304,0.5117 0.5488,1.1656 0.9543,1.9616l0.242 -0.4766c0.2781,-0.5359 0.5179,-1.0306 0.7197,-1.485 0.0063,0.0022 0.0137,0.0043 0.0233,0.0053 0.0095,0.0022 0.0159,0.0043 0.0201,0.0065 0.1402,0 0.2442,-0.0043 0.3132,-0.0118 0.0413,0.3822 0.1147,1.0307 0.2219,1.9435 0.0159,0.1031 0.0361,0.2463 0.0626,0.4289 0.0254,0.1826 0.0392,0.2792 0.0403,0.2887 0.0021,0.017 0.0064,0.0446 0.0137,0.0849 0.0075,0.0393 0.0107,0.0679 0.0107,0.0881 -0.0308,-0.0021 -0.0849,-0.0053 -0.1624,-0.0106 -0.0774,-0.0053 -0.1359,-0.0085 -0.1751,-0.0085 -0.0362,0 -0.0913,0.0032 -0.1646,0.0085 -0.0732,0.0053 -0.1316,0.0085 -0.1729,0.0106 -0.0107,-0.2791 -0.0341,-0.5869 -0.0691,-0.9255 -0.0339,-0.3386 -0.0689,-0.6666 -0.1029,-0.985 -0.4638,0.9499 -0.7685,1.5868 -0.916,1.9105l-0.1593 0 -0.3195 -0.6623c-0.0807,-0.172 -0.1889,-0.3949 -0.3237,-0.6676 -0.1348,-0.2728 -0.2218,-0.4501 -0.2601,-0.5298 -0.0392,0.2899 -0.07,0.534 -0.0901,0.7324 -0.0149,0.1773 -0.0277,0.3323 -0.0373,0.465 -0.0169,0.1602 -0.0275,0.2961 -0.0328,0.4075 -0.0021,0.0277 -0.0043,0.0701 -0.0064,0.1253 -0.0022,0.0563 -0.0042,0.0998 -0.0063,0.1295 -0.0627,-0.0127 -0.1284,-0.0191 -0.1975,-0.0191 -0.0626,0 -0.1263,0.0064 -0.191,0.0191 0,-0.053 0.0106,-0.104 0.0328,-0.1529 0.0149,-0.0742 0.0361,-0.1953 0.0638,-0.364 0.0265,-0.1688 0.0414,-0.2569 0.0435,-0.2665 0.0424,-0.2515 0.0806,-0.5211 0.1147,-0.8087l0.1729 -1.242zm5.9653 0.6051c0,0.0435 -0.0011,0.1114 -0.0032,0.2038 -0.0021,0.0913 -0.0033,0.1602 -0.0033,0.2048 0,0.051 -0.002,0.1264 -0.0063,0.2283 -0.0043,0.1018 -0.0063,0.1782 -0.0063,0.2282 -0.0086,0.3194 -0.0361,0.5657 -0.0828,0.7397 -0.0467,0.1731 -0.1657,0.326 -0.3577,0.4586 -0.2017,0.1444 -0.4628,0.2166 -0.7834,0.2166 -0.1794,0 -0.3492,-0.0213 -0.5105,-0.0648 -0.1614,-0.0425 -0.3025,-0.1157 -0.4246,-0.2186 -0.1221,-0.103 -0.2069,-0.241 -0.2558,-0.4119 -0.0159,-0.0467 -0.0287,-0.1199 -0.0371,-0.2218 -0.0086,-0.0594 -0.0128,-0.1539 -0.0128,-0.2855 0,-0.085 -0.0011,-0.1763 -0.0031,-0.276 -0.0033,-0.0976 -0.0043,-0.1762 -0.0043,-0.2346l0 -0.5222c0,-0.051 -0.0012,-0.1295 -0.0032,-0.2357 -0.0021,-0.1072 -0.0033,-0.1857 -0.0033,-0.2356 0,-0.018 -0.001,-0.0477 -0.0031,-0.0871 -0.0022,-0.0393 -0.0032,-0.0699 -0.0032,-0.0913 0.1635,0.0171 0.277,0.0255 0.3439,0.0255 0.068,0 0.1783,-0.0084 0.3312,-0.0255 0,0.0214 -0.0032,0.0542 -0.0075,0.0999 -0.0053,0.0456 -0.0094,0.0795 -0.0116,0.104 -0.0202,0.3609 -0.0308,0.6835 -0.0308,0.968 0,0.3768 0.0085,0.6379 0.0244,0.7834 0.0255,0.1221 0.052,0.2154 0.0785,0.2801 0.0277,0.0648 0.0765,0.1285 0.1444,0.1912 0.1253,0.1188 0.2835,0.1782 0.4735,0.1782 0.191,0 0.3428,-0.0392 0.4574,-0.1167 0.1146,-0.0776 0.2091,-0.2048 0.2813,-0.3811 0.0467,-0.1231 0.0701,-0.4097 0.0701,-0.8587 0,-0.5551 -0.0107,-0.9712 -0.033,-1.2483 0.0999,0.0171 0.1688,0.0255 0.2092,0.0255 0.0413,0 0.1125,-0.0084 0.2112,-0.0255 -0.0043,0.0298 -0.0086,0.0712 -0.0127,0.1232 -0.0033,0.0531 -0.0075,0.1082 -0.0106,0.1667 -0.0033,0.0583 -0.0053,0.1082 -0.0065,0.1496 -0.0021,0.0414 -0.0053,0.0966 -0.0084,0.1656zm1.3458 -0.0499c-0.002,0.0892 -0.0074,0.2176 -0.0138,0.3874 -0.0084,0.1688 -0.0127,0.309 -0.0127,0.4203 0,0.12 0.0043,0.2686 0.0127,0.4469 0.0064,0.1794 0.0118,0.3174 0.0138,0.4129 0.0021,0.0701 0.0075,0.1719 0.0149,0.3079 0.0085,0.1358 0.0138,0.2377 0.0159,0.3035 -0.035,-0.0021 -0.0891,-0.0053 -0.1635,-0.0106 -0.0732,-0.0053 -0.1273,-0.0085 -0.1612,-0.0085 -0.1242,0 -0.2473,0.0064 -0.3684,0.0191 0.0382,-0.4436 0.0573,-0.951 0.0573,-1.5221l0 -0.2218c0,-0.0891 -0.001,-0.1858 -0.0032,-0.2897 -0.0031,-0.1031 -0.0042,-0.1837 -0.0042,-0.2389 -0.0085,-0.243 -0.0191,-0.4299 -0.0308,-0.5616 0.1624,0.0171 0.2749,0.0255 0.3365,0.0255 0.0627,0 0.1751,-0.0084 0.3375,-0.0255 -0.0169,0.2463 -0.0265,0.4321 -0.0308,0.5552zm1.8587 0.0552c0,0.1167 -0.0022,0.2887 -0.0065,0.5179 -0.0041,0.2293 -0.0063,0.4013 -0.0063,0.5149 0,0.0573 0.001,0.1443 0.0032,0.2611 0.0021,0.1168 0.0031,0.2059 0.0031,0.2675 0,0.0711 0.0032,0.1814 0.0096,0.3312 0.0063,0.1496 0.0096,0.26 0.0096,0.3311 -0.0319,-0.0021 -0.086,-0.0053 -0.1625,-0.0106 -0.0774,-0.0053 -0.1358,-0.0085 -0.1751,-0.0085 -0.0361,0 -0.0913,0.0032 -0.1656,0.0085 -0.0753,0.0053 -0.1316,0.0085 -0.1708,0.0106 0.0021,-0.0669 0.0063,-0.1645 0.0137,-0.295 0.0075,-0.1306 0.0106,-0.2283 0.0106,-0.2909 0.0181,-0.5934 0.0266,-1.0625 0.0266,-1.4075 0,-0.122 -0.0042,-0.2982 -0.0127,-0.5286 -0.0807,0 -0.2017,0.0043 -0.3641,0.0128 -0.155,0.0137 -0.2887,0.0296 -0.4012,0.0445 0.0127,-0.0381 0.0191,-0.0954 0.0191,-0.1719 0,-0.0679 -0.0022,-0.1157 -0.0064,-0.1465 -0.0021,-0.0043 -0.0043,-0.0127 -0.0064,-0.0255 -0.002,-0.0127 -0.0042,-0.0212 -0.0063,-0.0255 0.1368,0.0086 0.2409,0.0118 0.3121,0.0118 0.2993,0.0096 0.5498,0.0137 0.7514,0.0137l0.4278 0c0.071,0 0.1751,-0.0041 0.3099,-0.0127 0.1348,-0.0085 0.2452,-0.0128 0.3323,-0.0128 -0.0128,0.0574 -0.0181,0.1126 -0.0181,0.1667 0,0.0647 0.0053,0.1327 0.0181,0.2027 -0.2452,-0.0381 -0.4905,-0.0573 -0.7324,-0.0573l-0.0127 0.2983zm3.6705 1.9116c-0.3047,0.2591 -0.6858,0.3885 -1.1411,0.3885 -0.4756,0 -0.8513,-0.138 -1.1273,-0.414 -0.2717,-0.2621 -0.4075,-0.6166 -0.4075,-1.0635 0,-0.4574 0.1633,-0.8268 0.4913,-1.1091 0.309,-0.2548 0.689,-0.3822 1.139,-0.3822 0.3811,0 0.7005,0.0934 0.9616,0.2813 0.2165,0.156 0.3651,0.3343 0.4458,0.5349 0.085,0.2018 0.1274,0.4204 0.1274,0.657 0,0.2112 -0.0424,0.414 -0.1263,0.6072 -0.0849,0.1943 -0.2059,0.3609 -0.3629,0.4999zm-0.3769 -0.3322c0.1199,-0.2229 0.1794,-0.5073 0.1794,-0.8534 0,-0.1879 -0.0308,-0.3714 -0.0924,-0.5487 -0.0615,-0.1773 -0.1581,-0.3217 -0.2908,-0.4342 -0.1316,-0.1125 -0.2951,-0.1688 -0.4915,-0.1688 -0.1815,0 -0.3364,0.0467 -0.4648,0.1402 -0.1285,0.0913 -0.2261,0.2059 -0.2919,0.3429 -0.1062,0.2175 -0.1592,0.5126 -0.1592,0.8862 0,0.1911 0.0297,0.3705 0.0901,0.5381 0.0605,0.1678 0.1561,0.3047 0.2866,0.4109 0.1306,0.105 0.2941,0.1581 0.4894,0.1581 0.3152,0 0.5636,-0.1571 0.7451,-0.4713zm2.6047 -1.6293c-0.0891,-0.2346 -0.2483,-0.3513 -0.4776,-0.3513 -0.137,0 -0.2473,0.0361 -0.3312,0.1094 -0.0806,0.0742 -0.1209,0.1698 -0.1209,0.2854 0,0.0977 0.0424,0.1816 0.1262,0.2516 0.085,0.0711 0.2176,0.1528 0.4002,0.2474 0.1815,0.0944 0.3259,0.1782 0.432,0.2526 0.1061,0.0732 0.1815,0.1623 0.2261,0.2685 0.0467,0.0976 0.07,0.2207 0.07,0.3683 0,0.1263 -0.0318,0.2558 -0.0944,0.3885 -0.0828,0.1709 -0.2304,0.3046 -0.4405,0.4012 -0.1529,0.0732 -0.3397,0.1093 -0.5594,0.1093 -0.2579,0 -0.4809,-0.0573 -0.6688,-0.1719 0.0606,-0.207 0.0999,-0.3811 0.12,-0.5233l0.0775 0c0.0318,0.1391 0.0997,0.2473 0.2017,0.3248 0.1029,0.0775 0.226,0.1157 0.3705,0.1157 0.1358,0 0.2504,-0.0361 0.3439,-0.1082 0.0944,-0.0723 0.1411,-0.1741 0.1411,-0.3058 0,-0.1167 -0.051,-0.2229 -0.1539,-0.3184 -0.1317,-0.0923 -0.2866,-0.1794 -0.465,-0.2611 -0.0508,-0.0265 -0.1124,-0.0637 -0.1857,-0.1115 -0.0732,-0.0477 -0.1209,-0.0785 -0.1454,-0.0923 -0.0913,-0.0594 -0.1602,-0.1464 -0.2081,-0.2622 -0.0477,-0.1157 -0.0721,-0.2356 -0.0721,-0.362 0,-0.2685 0.1051,-0.485 0.3131,-0.6495 0.0956,-0.0775 0.1911,-0.1317 0.2888,-0.1604 0.0976,-0.0286 0.2154,-0.0434 0.3534,-0.0434 0.2388,0 0.4457,0.0552 0.6188,0.1645 0.0032,0.0075 0.0128,0.0159 0.0308,0.0265 -0.0435,0.1295 -0.0859,0.2654 -0.1274,0.4076l-0.0637 0z"/>
  </g>
 </g>
</svg>
